<svg width="16" height="15" viewBox="0 0 16 15" fill="none" xmlns="http://www.w3.org/2000/svg">
<g clip-path="url(#clip0_1_10)">
<path d="M14.5619 13.0989L13.3227 11.9326M8.05622 12.5158C8.82919 12.5158 9.59459 12.3725 10.3087 12.0941C11.0228 11.8157 11.6717 11.4076 12.2183 10.8932C12.7649 10.3788 13.1984 9.76806 13.4942 9.09594C13.79 8.42382 13.9423 7.70344 13.9423 6.97594C13.9423 6.24845 13.79 5.52807 13.4942 4.85595C13.1984 4.18383 12.7649 3.57312 12.2183 3.0587C11.6717 2.54428 11.0228 2.13622 10.3087 1.85782C9.59459 1.57942 8.82919 1.43613 8.05622 1.43613C6.49514 1.43613 4.998 2.01978 3.89415 3.0587C2.7903 4.09762 2.17017 5.50669 2.17017 6.97594C2.17017 8.4452 2.7903 9.85427 3.89415 10.8932C4.998 11.9321 6.49514 12.5158 8.05622 12.5158V12.5158Z" stroke="white" stroke-width="1.5" stroke-linecap="round" stroke-linejoin="round"/>
</g>
<defs>
<clipPath id="clip0_1_10">
<rect width="14.87" height="13.9953" fill="white" transform="translate(0.930969 0.269849)"/>
</clipPath>
</defs>
</svg>
